arm260_states
version=1
nRows=20
nColumns=17
inDegrees=yes

# SIMM Motion File Header:
name arm260_states
datacolumns 17
datarows 20
otherdata 1
range 0.40949562 0.41860986
endheader
time	/jointset/r_shoulder/r_shoulder_elev/value	/jointset/r_shoulder/r_shoulder_elev/speed	/jointset/r_elbow/r_elbow_flex/value	/jointset/r_elbow/r_elbow_flex/speed	/forceset/TRIlong/activation	/forceset/TRIlong/fiber_length	/forceset/TRIlat/activation	/forceset/TRIlat/fiber_length	/forceset/TRImed/activation	/forceset/TRImed/fiber_length	/forceset/BIClong/activation	/forceset/BIClong/fiber_length	/forceset/BICshort/activation	/forceset/BICshort/fiber_length	/forceset/BRA/activation	/forceset/BRA/fiber_length
      0.40949562	      0.16697498	     -0.43886770	    106.49930019	    259.08006797	      0.02298719	      0.17515305	      0.21000569	      0.10853741	      0.20681433	      0.10359553	      0.94057075	      0.08138258	      0.24137737	      0.08256439	      0.02088893	      0.06204271
      0.40974937	      0.16686179	     -0.45322873	    106.56504053	    259.07204874	      0.02297708	      0.17517621	      0.20997032	      0.10856003	      0.20679297	      0.10361806	      0.94045343	      0.08132719	      0.24147659	      0.08250780	      0.02088594	      0.06201528
      0.40986666	      0.16680824	     -0.45982712	    106.59542817	    259.06803432	      0.02297242	      0.17518648	      0.20995403	      0.10857049	      0.20678313	      0.10362847	      0.94039968	      0.08130159	      0.24152148	      0.08248164	      0.02088456	      0.06200260
      0.40995864	      0.16676571	     -0.46500442	    106.61925647	    259.06471352	      0.02296877	      0.17519445	      0.20994128	      0.10857869	      0.20677544	      0.10363664	      0.94035774	      0.08128153	      0.24155624	      0.08246114	      0.02088348	      0.06199265
      0.40998998	      0.16675111	     -0.46677030	    106.62737636	    259.06354530	      0.02296753	      0.17519716	      0.20993695	      0.10858148	      0.20677282	      0.10363942	      0.94034349	      0.08127469	      0.24156801	      0.08245415	      0.02088311	      0.06198926
      0.41000206	      0.16674546	     -0.46745093	    106.63050487	    259.06309012	      0.02296705	      0.17519820	      0.20994862	      0.10858256	      0.20678516	      0.10364050	      0.94034521	      0.08127206	      0.24168781	      0.08245146	      0.02088297	      0.06198796
      0.41001414	      0.16673982	     -0.46813131	    106.63363337	    259.06263170	      0.02296657	      0.17519924	      0.21002693	      0.10858363	      0.20686420	      0.10364157	      0.94038290	      0.08126942	      0.24238280	      0.08244876	      0.02088283	      0.06198665
      0.41007452	      0.16671145	     -0.47152328	    106.64927580	    259.06027584	      0.02296418	      0.17520445	      0.21041658	      0.10858896	      0.20725744	      0.10364687	      0.94057100	      0.08125625	      0.24583082	      0.08243513	      0.02088212	      0.06198012
      0.41037642	      0.16656658	     -0.48798154	    106.72748553	    259.04570663	      0.02295224	      0.17523037	      0.21231815	      0.10861458	      0.20917626	      0.10367238	      0.94150223	      0.08119031	      0.26243049	      0.08236362	      0.02087859	      0.06194748
      0.41184818	      0.16580191	     -0.54354014	    107.10862390	    258.85311344	      0.02289476	      0.17535836	      0.22057352	      0.10872920	      0.21750037	      0.10378698	      0.94582843	      0.08086730	      0.33102525	      0.08195441	      0.02086158	      0.06178836
      0.41243904	      0.16547782	     -0.55225172	    107.26153258	    258.71932482	      0.02287201	      0.17540628	      0.22346726	      0.10877396	      0.22041572	      0.10383191	      0.94747014	      0.08073706	      0.35410290	      0.08177114	      0.02085485	      0.06172448
      0.41325454	      0.16502556	     -0.55585390	    107.47242926	    258.49472230	      0.02284089	      0.17547977	      0.22711801	      0.10883600	      0.22409177	      0.10389433	      0.94965140	      0.08055693	      0.38276766	      0.08150819	      0.02084564	      0.06163636
      0.41392396	      0.16465465	     -0.55115156	    107.64540264	    258.29413136	      0.02281560	      0.17553216	      0.22984543	      0.10888738	      0.22683658	      0.10394612	      0.95137149	      0.08040882	      0.40396671	      0.08128720	      0.02083815	      0.06156406
      0.41459337	      0.16428778	     -0.54501927	    107.81823920	    258.08632422	      0.02279054	      0.17559389	      0.23235337	      0.10893925	      0.22935929	      0.10399844	      0.95303067	      0.08026057	      0.42337774	      0.08106410	      0.02083074	      0.06149181
      0.41526279	      0.16392588	     -0.53563686	    107.99093869	    257.88780081	      0.02276571	      0.17564623	      0.23466121	      0.10899160	      0.23167964	      0.10405124	      0.95463124	      0.08011224	      0.44123135	      0.08084066	      0.02082338	      0.06141960
      0.41593220	      0.16357001	     -0.52822245	    108.16350953	    257.70175785	      0.02274110	      0.17570809	      0.23678633	      0.10904441	      0.23381532	      0.10410449	      0.95617542	      0.07996386	      0.45771540	      0.08061824	      0.02081610	      0.06134745
      0.41660162	      0.16321901	     -0.52025547	    108.33596364	    257.54182905	      0.02271671	      0.17576007	      0.23874442	      0.10909767	      0.23578225	      0.10415815	      0.95766532	      0.07981550	      0.47298528	      0.08039781	      0.02080887	      0.06127534
      0.41727103	      0.16287229	     -0.51666905	    108.50831965	    257.40787006	      0.02269253	      0.17582227	      0.24054961	      0.10915132	      0.23759480	      0.10421217	      0.95910296	      0.07966718	      0.48717118	      0.08018009	      0.02080171	      0.06120327
      0.41794045	      0.16252728	     -0.51411864	    108.68059764	    257.31118641	      0.02266858	      0.17587374	      0.24221469	      0.10920536	      0.23926595	      0.10426654	      0.96049029	      0.07951894	      0.50038344	      0.07996556	      0.02079462	      0.06113124
      0.41860986	      0.16218242	     -0.51747110	    108.85282274	    257.24846734	      0.02264484	      0.17593643	      0.24375126	      0.10925975	      0.24080746	      0.10432123	      0.96182917	      0.07937080	      0.51271647	      0.07975451	      0.02078759	      0.06105924
